<?xml version="1.0"?>
<svg width="800" height="900"
     xmlns="http://www.w3.org/2000/svg"
     xmlns:xlink="http://www.w3.org/1999/xlink">
<rect x="50" y="50" width="80" height="80" style="stroke:black; stroke-width:2; fill:white"/>
<rect x="130" y="50" width="80" height="80" style="stroke:black; stroke-width:2; fill:white"/>
<rect x="210" y="50" width="80" height="80" style="stroke:black; stroke-width:2; fill:white"/>
<rect x="290" y="50" width="80" height="80" style="stroke:black; stroke-width:2; fill:white"/>
<rect x="370" y="50" width="80" height="80" style="stroke:black; stroke-width:2; fill:white"/>
<rect x="450" y="50" width="80" height="80" style="stroke:black; stroke-width:2; fill:white"/>
<rect x="530" y="50" width="80" height="80" style="stroke:black; stroke-width:2; fill:white"/>
<rect x="610" y="50" width="80" height="80" style="stroke:black; stroke-width:2; fill:white"/>
<rect x="690" y="50" width="80" height="80" style="stroke:black; stroke-width:2; fill:white"/>
<rect x="50" y="130" width="80" height="80" style="stroke:black; stroke-width:2; fill:white"/>
<text x="90" y="170" style="text-anchor:middle; dominant-baseline:middle; font-family:Helvetica; font-size:32px; fill:black">7</text>
<rect x="130" y="130" width="80" height="80" style="stroke:black; stroke-width:2; fill:white"/>
<text x="170" y="170" style="text-anchor:middle; dominant-baseline:middle; font-family:Helvetica; font-size:32px; fill:black">6</text>
<rect x="210" y="130" width="80" height="80" style="stroke:black; stroke-width:2; fill:white"/>
<rect x="290" y="130" width="80" height="80" style="stroke:black; stroke-width:2; fill:white"/>
<text x="330" y="170" style="text-anchor:middle; dominant-baseline:middle; font-family:Helvetica; font-size:32px; fill:black">8</text>
<rect x="370" y="130" width="80" height="80" style="stroke:black; stroke-width:2; fill:white"/>
<rect x="450" y="130" width="80" height="80" style="stroke:black; stroke-width:2; fill:white"/>
<rect x="530" y="130" width="80" height="80" style="stroke:black; stroke-width:2; fill:white"/>
<rect x="610" y="130" width="80" height="80" style="stroke:black; stroke-width:2; fill:white"/>
<rect x="690" y="130" width="80" height="80" style="stroke:black; stroke-width:2; fill:white"/>
<text x="730" y="170" style="text-anchor:middle; dominant-baseline:middle; font-family:Helvetica; font-size:32px; fill:black">1</text>
<rect x="50" y="210" width="80" height="80" style="stroke:black; stroke-width:2; fill:white"/>
<rect x="130" y="210" width="80" height="80" style="stroke:black; stroke-width:2; fill:white"/>
<rect x="210" y="210" width="80" height="80" style="stroke:black; stroke-width:2; fill:white"/>
<text x="250" y="250" style="text-anchor:middle; dominant-baseline:middle; font-family:Helvetica; font-size:32px; fill:black">4</text>
<rect x="290" y="210" width="80" height="80" style="stroke:black; stroke-width:2; fill:white"/>
<text x="330" y="250" style="text-anchor:middle; dominant-baseline:middle; font-family:Helvetica; font-size:32px; fill:black">7</text>
<rect x="370" y="210" width="80" height="80" style="stroke:black; stroke-width:2; fill:white"/>
<rect x="450" y="210" width="80" height="80" style="stroke:black; stroke-width:2; fill:white"/>
<text x="490" y="250" style="text-anchor:middle; dominant-baseline:middle; font-family:Helvetica; font-size:32px; fill:black">2</text>
<rect x="530" y="210" width="80" height="80" style="stroke:black; stroke-width:2; fill:white"/>
<rect x="610" y="210" width="80" height="80" style="stroke:black; stroke-width:2; fill:white"/>
<rect x="690" y="210" width="80" height="80" style="stroke:black; stroke-width:2; fill:white"/>
<rect x="50" y="290" width="80" height="80" style="stroke:black; stroke-width:2; fill:white"/>
<rect x="130" y="290" width="80" height="80" style="stroke:black; stroke-width:2; fill:white"/>
<rect x="210" y="290" width="80" height="80" style="stroke:black; stroke-width:2; fill:white"/>
<rect x="290" y="290" width="80" height="80" style="stroke:black; stroke-width:2; fill:white"/>
<rect x="370" y="290" width="80" height="80" style="stroke:black; stroke-width:2; fill:white"/>
<rect x="450" y="290" width="80" height="80" style="stroke:black; stroke-width:2; fill:white"/>
<text x="490" y="330" style="text-anchor:middle; dominant-baseline:middle; font-family:Helvetica; font-size:32px; fill:black">7</text>
<rect x="530" y="290" width="80" height="80" style="stroke:black; stroke-width:2; fill:white"/>
<text x="570" y="330" style="text-anchor:middle; dominant-baseline:middle; font-family:Helvetica; font-size:32px; fill:black">9</text>
<rect x="610" y="290" width="80" height="80" style="stroke:black; stroke-width:2; fill:white"/>
<rect x="690" y="290" width="80" height="80" style="stroke:black; stroke-width:2; fill:white"/>
<rect x="50" y="370" width="80" height="80" style="stroke:black; stroke-width:2; fill:white"/>
<rect x="130" y="370" width="80" height="80" style="stroke:black; stroke-width:2; fill:white"/>
<rect x="210" y="370" width="80" height="80" style="stroke:black; stroke-width:2; fill:white"/>
<text x="250" y="410" style="text-anchor:middle; dominant-baseline:middle; font-family:Helvetica; font-size:32px; fill:black">2</text>
<rect x="290" y="370" width="80" height="80" style="stroke:black; stroke-width:2; fill:white"/>
<rect x="370" y="370" width="80" height="80" style="stroke:black; stroke-width:2; fill:white"/>
<rect x="450" y="370" width="80" height="80" style="stroke:black; stroke-width:2; fill:white"/>
<rect x="530" y="370" width="80" height="80" style="stroke:black; stroke-width:2; fill:white"/>
<text x="570" y="410" style="text-anchor:middle; dominant-baseline:middle; font-family:Helvetica; font-size:32px; fill:black">4</text>
<rect x="610" y="370" width="80" height="80" style="stroke:black; stroke-width:2; fill:white"/>
<rect x="690" y="370" width="80" height="80" style="stroke:black; stroke-width:2; fill:white"/>
<rect x="50" y="450" width="80" height="80" style="stroke:black; stroke-width:2; fill:white"/>
<rect x="130" y="450" width="80" height="80" style="stroke:black; stroke-width:2; fill:white"/>
<rect x="210" y="450" width="80" height="80" style="stroke:black; stroke-width:2; fill:white"/>
<text x="250" y="490" style="text-anchor:middle; dominant-baseline:middle; font-family:Helvetica; font-size:32px; fill:black">3</text>
<rect x="290" y="450" width="80" height="80" style="stroke:black; stroke-width:2; fill:white"/>
<rect x="370" y="450" width="80" height="80" style="stroke:black; stroke-width:2; fill:white"/>
<rect x="450" y="450" width="80" height="80" style="stroke:black; stroke-width:2; fill:white"/>
<text x="490" y="490" style="text-anchor:middle; dominant-baseline:middle; font-family:Helvetica; font-size:32px; fill:black">5</text>
<rect x="530" y="450" width="80" height="80" style="stroke:black; stroke-width:2; fill:white"/>
<text x="570" y="490" style="text-anchor:middle; dominant-baseline:middle; font-family:Helvetica; font-size:32px; fill:black">8</text>
<rect x="610" y="450" width="80" height="80" style="stroke:black; stroke-width:2; fill:white"/>
<text x="650" y="490" style="text-anchor:middle; dominant-baseline:middle; font-family:Helvetica; font-size:32px; fill:black">2</text>
<rect x="690" y="450" width="80" height="80" style="stroke:black; stroke-width:2; fill:white"/>
<rect x="50" y="530" width="80" height="80" style="stroke:black; stroke-width:2; fill:white"/>
<rect x="130" y="530" width="80" height="80" style="stroke:black; stroke-width:2; fill:white"/>
<text x="170" y="570" style="text-anchor:middle; dominant-baseline:middle; font-family:Helvetica; font-size:32px; fill:black">4</text>
<rect x="210" y="530" width="80" height="80" style="stroke:black; stroke-width:2; fill:white"/>
<text x="250" y="570" style="text-anchor:middle; dominant-baseline:middle; font-family:Helvetica; font-size:32px; fill:black">1</text>
<rect x="290" y="530" width="80" height="80" style="stroke:black; stroke-width:2; fill:white"/>
<rect x="370" y="530" width="80" height="80" style="stroke:black; stroke-width:2; fill:white"/>
<rect x="450" y="530" width="80" height="80" style="stroke:black; stroke-width:2; fill:white"/>
<rect x="530" y="530" width="80" height="80" style="stroke:black; stroke-width:2; fill:white"/>
<rect x="610" y="530" width="80" height="80" style="stroke:black; stroke-width:2; fill:white"/>
<rect x="690" y="530" width="80" height="80" style="stroke:black; stroke-width:2; fill:white"/>
<rect x="50" y="610" width="80" height="80" style="stroke:black; stroke-width:2; fill:white"/>
<rect x="130" y="610" width="80" height="80" style="stroke:black; stroke-width:2; fill:white"/>
<text x="170" y="650" style="text-anchor:middle; dominant-baseline:middle; font-family:Helvetica; font-size:32px; fill:black">2</text>
<rect x="210" y="610" width="80" height="80" style="stroke:black; stroke-width:2; fill:white"/>
<rect x="290" y="610" width="80" height="80" style="stroke:black; stroke-width:2; fill:white"/>
<text x="330" y="650" style="text-anchor:middle; dominant-baseline:middle; font-family:Helvetica; font-size:32px; fill:black">6</text>
<rect x="370" y="610" width="80" height="80" style="stroke:black; stroke-width:2; fill:white"/>
<rect x="450" y="610" width="80" height="80" style="stroke:black; stroke-width:2; fill:white"/>
<text x="490" y="650" style="text-anchor:middle; dominant-baseline:middle; font-family:Helvetica; font-size:32px; fill:black">3</text>
<rect x="530" y="610" width="80" height="80" style="stroke:black; stroke-width:2; fill:white"/>
<rect x="610" y="610" width="80" height="80" style="stroke:black; stroke-width:2; fill:white"/>
<text x="650" y="650" style="text-anchor:middle; dominant-baseline:middle; font-family:Helvetica; font-size:32px; fill:black">5</text>
<rect x="690" y="610" width="80" height="80" style="stroke:black; stroke-width:2; fill:white"/>
<rect x="50" y="690" width="80" height="80" style="stroke:black; stroke-width:2; fill:white"/>
<rect x="130" y="690" width="80" height="80" style="stroke:black; stroke-width:2; fill:white"/>
<text x="170" y="730" style="text-anchor:middle; dominant-baseline:middle; font-family:Helvetica; font-size:32px; fill:black">8</text>
<rect x="210" y="690" width="80" height="80" style="stroke:black; stroke-width:2; fill:white"/>
<rect x="290" y="690" width="80" height="80" style="stroke:black; stroke-width:2; fill:white"/>
<text x="330" y="730" style="text-anchor:middle; dominant-baseline:middle; font-family:Helvetica; font-size:32px; fill:black">5</text>
<rect x="370" y="690" width="80" height="80" style="stroke:black; stroke-width:2; fill:white"/>
<rect x="450" y="690" width="80" height="80" style="stroke:black; stroke-width:2; fill:white"/>
<rect x="530" y="690" width="80" height="80" style="stroke:black; stroke-width:2; fill:white"/>
<rect x="610" y="690" width="80" height="80" style="stroke:black; stroke-width:2; fill:white"/>
<rect x="690" y="690" width="80" height="80" style="stroke:black; stroke-width:2; fill:white"/>
<rect x="50" y="50" width="240" height="240" style="stroke:black; stroke-width:5; fill-opacity:0.0"/>
<rect x="290" y="50" width="240" height="240" style="stroke:black; stroke-width:5; fill-opacity:0.0"/>
<rect x="530" y="50" width="240" height="240" style="stroke:black; stroke-width:5; fill-opacity:0.0"/>
<rect x="50" y="290" width="240" height="240" style="stroke:black; stroke-width:5; fill-opacity:0.0"/>
<rect x="290" y="290" width="240" height="240" style="stroke:black; stroke-width:5; fill-opacity:0.0"/>
<rect x="530" y="290" width="240" height="240" style="stroke:black; stroke-width:5; fill-opacity:0.0"/>
<rect x="50" y="530" width="240" height="240" style="stroke:black; stroke-width:5; fill-opacity:0.0"/>
<rect x="290" y="530" width="240" height="240" style="stroke:black; stroke-width:5; fill-opacity:0.0"/>
<rect x="530" y="530" width="240" height="240" style="stroke:black; stroke-width:5; fill-opacity:0.0"/>
<text x="50" y="810" style="font-family:Helvetica; font-size:16px; fill:black">Difficulty: 4.70 out of 5</text>
</svg>
